<mxfile host="65bd71144e">
    <diagram id="7TX8o7tcfp7BSObOm_UU" name="PÃ¡gina-1">
        <mxGraphModel dx="662" dy="357" grid="1" gridSize="10" guides="1" tooltips="1" connect="1" arrows="1" fold="1" page="1" pageScale="1" pageWidth="827" pageHeight="1169" math="0" shadow="0">
            <root>
                <mxCell id="0"/>
                <mxCell id="1" parent="0"/>
                <mxCell id="4" value="" style="edgeStyle=none;html=1;" edge="1" parent="1" source="2" target="3">
                    <mxGeometry relative="1" as="geometry"/>
                </mxCell>
                <mxCell id="6" value="" style="edgeStyle=none;html=1;" edge="1" parent="1" source="2" target="5">
                    <mxGeometry relative="1" as="geometry"/>
                </mxCell>
                <mxCell id="2" value="edad" style="shape=parallelogram;perimeter=parallelogramPerimeter;whiteSpace=wrap;html=1;fixedSize=1;fillColor=#0FA814;" vertex="1" parent="1">
                    <mxGeometry x="280" y="120" width="120" height="60" as="geometry"/>
                </mxCell>
                <mxCell id="3" value="INICIO" style="ellipse;whiteSpace=wrap;html=1;fillColor=#6600CC;" vertex="1" parent="1">
                    <mxGeometry x="280" y="20" width="120" height="60" as="geometry"/>
                </mxCell>
                <mxCell id="12" value="" style="edgeStyle=none;html=1;" edge="1" parent="1" source="5" target="16">
                    <mxGeometry relative="1" as="geometry">
                        <mxPoint x="120" y="340" as="targetPoint"/>
                        <Array as="points">
                            <mxPoint x="120" y="280"/>
                        </Array>
                    </mxGeometry>
                </mxCell>
                <mxCell id="15" value="" style="edgeStyle=none;html=1;" edge="1" parent="1" source="5" target="14">
                    <mxGeometry relative="1" as="geometry">
                        <Array as="points">
                            <mxPoint x="550" y="280"/>
                        </Array>
                    </mxGeometry>
                </mxCell>
                <mxCell id="5" value="edad&amp;gt;=18" style="rhombus;whiteSpace=wrap;html=1;fillColor=#CC6600;" vertex="1" parent="1">
                    <mxGeometry x="280" y="220" width="120" height="110" as="geometry"/>
                </mxCell>
                <mxCell id="14" value="MAYOR DE EDAD" style="shape=document;whiteSpace=wrap;html=1;boundedLbl=1;fillColor=#FF00FF;" vertex="1" parent="1">
                    <mxGeometry x="490" y="340" width="120" height="80" as="geometry"/>
                </mxCell>
                <mxCell id="17" style="edgeStyle=none;html=1;entryX=0.585;entryY=0.848;entryDx=0;entryDy=0;entryPerimeter=0;" edge="1" parent="1" source="16" target="14">
                    <mxGeometry relative="1" as="geometry">
                        <Array as="points">
                            <mxPoint x="120" y="540"/>
                            <mxPoint x="560" y="540"/>
                        </Array>
                    </mxGeometry>
                </mxCell>
                <mxCell id="16" value="MENOR DE EDAD" style="shape=document;whiteSpace=wrap;html=1;boundedLbl=1;fillColor=#FF00FF;" vertex="1" parent="1">
                    <mxGeometry x="60" y="340" width="120" height="80" as="geometry"/>
                </mxCell>
                <mxCell id="20" style="edgeStyle=none;html=1;" edge="1" parent="1" source="18">
                    <mxGeometry relative="1" as="geometry">
                        <mxPoint x="330" y="540" as="targetPoint"/>
                    </mxGeometry>
                </mxCell>
                <mxCell id="18" value="FINAL" style="ellipse;whiteSpace=wrap;html=1;fillColor=#6600CC;" vertex="1" parent="1">
                    <mxGeometry x="270" y="585" width="120" height="60" as="geometry"/>
                </mxCell>
            </root>
        </mxGraphModel>
    </diagram>
</mxfile>